<svg xmlns="http://www.w3.org/2000/svg" viewBox="0 0 512 512"><title>ffaf2</title><path d="M141.42,95l-.06-.1a9.24,9.24,0,0,0-1.63-7.18L124.05,62.47a9.25,9.25,0,0,0-5.71-4.65l-.06-.1,22-13.66,6.17,6.41-.32.41c-4.3-1.71-8.23-3.72-9.76-2.77l-12.74,7.47L134,72.25l8.21-5.09c1.38-.85.84-4.33.93-6.58l.41-.25,5.85,9.44L149,70c-1.85-.83-4.82-2.66-6.15-1.84l-8.21,5.09L142.54,86c1.7,2.76,2.73,3.61,5.7,4.65l.07.11Z"/><path d="M163,65.56A14.76,14.76,0,1,1,182.38,74,15,15,0,0,1,163,65.56Zm23.92-9.68c-2.93-7.23-8.8-11.66-15.53-8.93s-7.87,10-4.94,17.21S175.13,75.81,182,73,189.86,63.11,186.94,55.88Z"/><path d="M204.88,58.11l-3.36-14.43a5.07,5.07,0,0,0-3.59-3.79l0-.12,4.55-4.26,1.65,7.07h.3c2.16-3.46,3.67-8.06,7.88-9l1.09,4.68-.12,0a10.5,10.5,0,0,0-4.47.12c-.93.22-2.75,3-4.12,5.58l3.13,13.44c.72,3.1,1.19,4.84,2.89,6.6l0,.12-5.49,1.27,0-.11C205.82,62.94,205.6,61.21,204.88,58.11Z"/><path d="M256.06,58.45v-.12a9.25,9.25,0,0,0,2.84-6.79l1.91-29.7a9.27,9.27,0,0,0-1.95-7.1v-.12l25.87,1.66,1.29,8.8-.49.15c-2.51-3.89-4.55-7.81-6.34-7.92L264.5,16l-1.25,19.58,9.64.62c1.61.11,3.2-3,4.57-4.81l.48,0-.71,11.07-.48,0c-1-1.75-2.38-5-3.94-5.06l-9.64-.62-1,15c-.21,3.23.13,4.52,2,7.1V59Z"/><path d="M300.22,64.75c-7.55-1.69-11.3-8.56-9.36-17.17,2.07-9.19,9.45-13.86,16.48-12.28a10.46,10.46,0,0,1,7.83,13.57l-20-4.5a18.68,18.68,0,0,0-.78,2.65c-1.69,7.49.54,13.71,7.51,15.28,3.69.83,7.94.25,10.74-2.63l.26.18C310.42,64,305.66,66,300.22,64.75Zm-4.76-21.24,16.3,3.3.08-.35c1.33-5.91-.47-9.14-4.92-10.15C302,35.21,297.79,37.83,295.46,43.51Z"/><path d="M331.12,74.64c-7.16-2.92-9.71-10.32-6.38-18.49,3.57-8.71,11.63-12.1,18.29-9.37a10.45,10.45,0,0,1,5.47,14.68l-19-7.77a19.29,19.29,0,0,0-1.21,2.49c-2.91,7.11-1.74,13.62,4.87,16.32,3.5,1.43,7.78,1.56,11-.81l.23.22C341.31,75.57,336.29,76.76,331.12,74.64ZM330,52.91l15.52,6,.14-.33c2.29-5.61,1.06-9.1-3.16-10.82C337.79,45.8,333.2,47.68,330,52.91Z"/><path d="M359.17,89C353,85.14,351.89,78,356.51,70.66s13.93-10.36,21.94-5.3a14.63,14.63,0,0,1,5,5.09L390.2,59.8a4.15,4.15,0,0,0-.24-4.56l.06-.1,6.12.89L374.59,90.11c-2,3.2-1.78,4.06-.55,5.82L374,96,368.5,94.7l3.14-5-.21-.13A11.58,11.58,0,0,1,359.17,89ZM372,88.56l7.25-11.46c3.56-5.63,1-9.32-2.11-11.27-5.58-3.53-12.77-1.12-17.13,5.77s-3.37,13.42,1.7,16.63A10.47,10.47,0,0,0,372,88.56Z"/><path d="M384.07,102.33l-2.85,1-.44-.41,27.4-29.67a4.14,4.14,0,0,0,.58-4.52l.08-.09,5.86,2L399.47,87.06l.13.13a11.12,11.12,0,0,1,10.69,2.92c5.38,5,5.48,12.74-.43,19.13-5.49,6-14.31,8.51-21.54,1.83C385,108,384,104.83,384.07,102.33Zm22.83,5c5.66-6.13,5.27-12.69.82-16.81a10.92,10.92,0,0,0-9.1-2.52l-8.76,9.48c-4.72,5.11-3.67,10.16-.28,13.3C393.86,114.72,400.92,113.8,406.9,107.32Z"/><path d="M417.94,137.65a13.52,13.52,0,0,1-9.16-4.91c-2.6-3.37-2.48-7,.57-9.29,5.56-4.29,13.87,1.5,18.57,6.52l4.37-3.37c2.52-1.94,3.94-4.92.71-9.11a15.14,15.14,0,0,0-7.21-5l.15-.49a14.59,14.59,0,0,1,9.55,5.81c4.07,5.28,2.15,8.5-.89,10.84l-14.35,11c-1.29,1-1.61,2.15-.62,3.43a3.94,3.94,0,0,0,2.9,1.4v.22a4.79,4.79,0,0,1-5.49-1.53C415.48,141.14,416.12,139.13,417.94,137.65Zm.81-.62,8.41-6.48c-4.57-4.66-10.91-8.56-15.28-5.19-2.24,1.72-2.82,4.21-.51,7.2A11.84,11.84,0,0,0,418.75,137Z"/><path d="M429.08,163.42c-3.6-6.64-1.28-14,6.42-18.23,8.81-4.78,17.41-1.39,21.21,5.62a18.3,18.3,0,0,1,2.1,8l-4.76,3.06-.27-.26c2.69-4.46,3.53-7.45,1.5-11.19-3.09-5.69-9.34-7.15-16.78-3.11-6.7,3.63-9.88,9.46-6.51,15.68,1.75,3.22,5,6.14,9.05,6.36l0,.32C436.36,170.53,431.72,168.27,429.08,163.42Z"/><path d="M445.93,180.14l31.35-11a4.16,4.16,0,0,0,2.63-3.73l.12,0,4.24,4.49L447,183c-2.94,1-4.68,1.71-6.24,3.59l-.12,0-1.87-5.32.12,0C441.23,181.6,443,181.18,445.93,180.14Zm8.85,1.66,11.94,4.83c1.68.61,3,.59,3.38-1.77l.12,0,2.31,6.57-.12,0c-2.22-2.34-3-2.63-5.81-3.68l-9.49-3.85-7.59,11.32c-2,3.13-2.85,4.76-3.23,7.11l-.11,0-1.79-5.09Z"/><path d="M452.83,235.24H453c2.14,2.25,3.28,2.59,7.21,4l37.42,12.95,0,1.62-37.51,14.35c-4.42,1.64-5.13,2.07-6.54,4h-.12l-.12-7.5h.12c1,.76,3.08,1.33,6.72,0l9.66-3.64-.27-17-9.66-3.26c-3.8-1.32-5.64-.15-6.82,1.25h-.12Zm17.92,9.19.26,16.14,22.55-8.41Z"/><path d="M452.11,279.78l.12,0c1.86,1.5,3.54,2,6.66,2.57L473.47,285a5.07,5.07,0,0,0,4.9-1.78l.12,0,2.09,5.87-5.37-1-.1.22A14,14,0,0,1,478.29,300c-1,5.48-4.76,7.66-10.13,6.67l-13.22-2.42c-3.24-.6-5-.86-7.2,0l-.12,0,1-5.55.12,0c1.86,1.5,3.66,2,6.67,2.57l12.62,2.32c4,.72,7.27-.38,8.18-5.33a13,13,0,0,0-2.18-10l-15.64-2.87c-3.13-.58-4.91-.84-7.2,0l-.12,0Z"/><path d="M440,324.33c2.59-6.78,9.4-9.32,17.47-6.23s12.91,11.61,9.52,20.47a14.54,14.54,0,0,1-4,5.92L474.8,349a4.15,4.15,0,0,0,4.41-1.14l.12,0,.34,6.17L442,339.66c-3.53-1.35-4.32-.94-5.82.61l-.11,0,.23-5.63,5.49,2.1.09-.22A11.56,11.56,0,0,1,440,324.33Zm3,12.51,12.66,4.84c6.23,2.38,9.33-.87,10.64-4.28,2.35-6.17-1.43-12.75-9.05-15.67s-13.81-.65-16,4.95A10.49,10.49,0,0,0,443,336.84Z"/><path d="M415.8,372.17l.1.08a9.26,9.26,0,0,0,3.81,6.3l22.88,19a9.28,9.28,0,0,0,6.89,2.61l.09.08L433,420.19l-7.88-4.13.17-.49c4.63.26,9,.93,10.14-.46L445.14,404l-15.09-12.55-6.17,7.42c-1,1.25.57,4.38,1.19,6.54l-.3.37-8.54-7.1.31-.37c2,.2,5.42,1,6.41-.2l6.18-7.43-11.53-9.6c-2.49-2.07-3.73-2.55-6.89-2.6l-.09-.08Z"/><path d="M396.62,404.26l9.95,11a5.07,5.07,0,0,0,5,1.56l.08.09-1.91,5.94-4.87-5.38-.27.16c-.2,4.06.71,8.82-2.49,11.72l-3.22-3.55.09-.08a10.6,10.6,0,0,0,3.85-2.28c.71-.64,1-3.94.89-6.88l-9.26-10.22c-2.14-2.36-3.39-3.65-5.73-4.36l-.09-.09,4.18-3.79.08.09C393.45,400.49,394.48,401.9,396.62,404.26Z"/><path d="M378.09,419.81l8.82,12a5.1,5.1,0,0,0,4.75,2l.08.1-2.7,5.85-13.33-18.11c-1.89-2.56-3-4-5.26-4.92l-.07-.1,4.54-3.34.07.1C375.31,415.74,376.24,417.3,378.09,419.81Zm16.68,24.89a2.46,2.46,0,1,1-.52,3.44A2.43,2.43,0,0,1,394.77,444.7Z"/><path d="M351,427.74c6.75-3.79,14.13-1.19,18.44,6.51,4.61,8.21,2.25,16.62-4,20.15a10.47,10.47,0,0,1-14.9-4.85l17.9-10a20,20,0,0,0-1.2-2.5c-3.76-6.69-9.57-9.83-15.8-6.34-3.3,1.85-6.07,5.13-6.23,9.14l-.32,0C344,435.14,346.18,430.47,351,427.74Zm17.74,12.61-14.32,8.45.18.31c3,5.29,6.46,6.49,10.44,4.26C369.47,450.9,370.86,446.13,368.78,440.35Z"/><path d="M332.91,438l0,.11c-.38,2.36,0,4.06,1.08,7.06l4.91,14a5.07,5.07,0,0,0,4,3.37l0,.12-4.06,4.73-1.81-5.15-.25,0a14.06,14.06,0,0,1-8.46,8.51c-5.27,1.84-9-.33-10.83-5.49l-4.45-12.68c-1.1-3.11-1.75-4.79-3.59-6.24l0-.11,5.32-1.87,0,.11c-.38,2.36.06,4.17,1.08,7.06l4.25,12.12c1.33,3.79,3.93,6.12,8.69,4.45a12.91,12.91,0,0,0,7.63-6.88l-5.27-15c-1.05-3-1.7-4.68-3.59-6.24l0-.12Z"/><path d="M288.23,449.62c7.17-1.12,12.75,3.54,14.08,12.08s-3.67,17-13,18.42a14.52,14.52,0,0,1-7.13-.53L284.09,492a4.13,4.13,0,0,0,3.18,3.27l0,.12-5.19,3.36L275.9,459c-.58-3.74-1.33-4.23-3.41-4.75l0-.12,5-2.6.9,5.81.24,0A11.6,11.6,0,0,1,288.23,449.62Zm-9.38,8.81,2.09,13.4c1,6.58,5.38,7.66,9,7.09,6.52-1,10.36-7.56,9.1-15.62s-6.29-12.32-12.22-11.4A10.51,10.51,0,0,0,278.85,458.43Z"/><path d="M246.8,475.88c2.15,4.35,4.59,5.53,7.53,5.58,3.78.06,6.46-2,6.51-5.18.06-3.78-3.34-5-7.51-6.72s-8.46-3.74-8.37-9.26c.08-5,3.73-8.16,10.69-8.05a17.53,17.53,0,0,1,7.89,1.87l.5,6.13-.48.12c-1.9-4.84-4.51-7-8.77-7.05-4.8-.08-7.3,2.64-7.36,6-.06,4,3.51,5.64,7.45,7.14s8.52,3.56,8.44,8.72c-.09,5.58-5.16,7.42-10,7.34a18.46,18.46,0,0,1-6.47-1.18l-.51-5.35Z"/><path d="M235.91,452.64c-1.47,1.88-1.93,3.57-2.44,6.71l-5.26,32a5.06,5.06,0,0,0,1.88,4.87l0,.12-6,1.57,3.66-22.26a14.05,14.05,0,0,1-11.5,3.4c-5.51-.91-7.76-4.62-6.87-10l2.17-13.26c.54-3.25.77-5-.15-7.2l0-.12,5.56.92,0,.12c-1.46,1.88-1.94,3.69-2.44,6.71l-2.08,12.67c-.65,4,.52,7.26,5.49,8.07a13.11,13.11,0,0,0,10-2.37l2.59-15.75c.51-3.07.74-4.86-.17-7.14l0-.12,5.57.92Z"/><path d="M188.38,480.3a2.46,2.46,0,1,1-3.07,1.65A2.44,2.44,0,0,1,188.38,480.3Zm9.9-28.28L194,466.27a5.11,5.11,0,0,0,1.24,5l0,.11-6.3,1.36,6.49-21.54c.91-3,1.38-4.79.78-7.16l0-.11,5.4,1.62,0,.12C199.87,447.36,199.18,449,198.28,452Z"/><path d="M191.45,428.61c-1.91,1.43-2.8,2.94-4.13,5.83l-11.79,25.75a5,5,0,0,0,.52,5.19l-.05.11-6.21.59,2.23-4.86-.36-.23a11.13,11.13,0,0,1-11.07.54c-6.65-3-9.16-10.4-5.54-18.31,3.38-7.37,11-12.54,20.18-8.31a11.93,11.93,0,0,1,6.12,5.37l3.22-7c1.33-2.9,2-4.56,1.75-7l.05-.11,5.13,2.35Zm-33,15.46c-3.5,7.64-1.09,13.76,4.15,16.15a10.83,10.83,0,0,0,9.71-.3l7.87-17.18a9.74,9.74,0,0,0-5.71-7C168.56,433,162.12,436.16,158.49,444.07Z"/><path d="M131.5,429.58a2.81,2.81,0,0,1-3.94.6,2.82,2.82,0,1,1,3.35-4.54A2.82,2.82,0,0,1,131.5,429.58Z"/><path d="M109.9,388.42l-.09.08c-3.24.12-4.56.79-7.1,3L76,414.74l6.21,6.77c1.14,1.31,7.27,0,11.37-.83l.18.48-9.28,5-20.72-23.8,6.2-8.5.45.24c-1.26,4-3.61,9.75-2.39,11.15l5.85,7.08,26.7-23.25a9.87,9.87,0,0,0,4-6.61l.09-.08Z"/><path d="M73.17,378.38c-2.5,2.75-3.4,4.44-3.61,5.88l-.1.06-3.35-5.83.1-.06c.85.14,3.07-.44,5.12-2.66l12.75-13.21-18.15,3.1-.05,0c-2,2.35-3.55,4.18-3.64,5.83l-.1.06L58.94,366,59,366c.84.14,2.92-.57,5.5-3.44l11.87-13.18-17,3.67c-3.69.81-5.4,1.93-5.46,4.11l-.11.06-3-5.15L51,352c2.12.92,3.44.93,7.23.06l23.19-4.81.18.31L67,364.33l22.06-3.75.18.31Z"/><path d="M60.57,338a14.76,14.76,0,1,1,9.57-18.83A15,15,0,0,1,60.57,338Zm-8.3-24.42c-7.38,2.51-12.13,8.11-9.8,15S52,337,59.38,334.47s12.11-8,9.74-15S59.66,311.06,52.27,313.57Z"/><path d="M59.83,261.58c.51,13.66-9.33,22.07-22.1,22.55s-23.11-8-23.64-22.42a38.27,38.27,0,0,1,2.46-14.5L25,245.7l.14.48c-7.23,4.29-10,9-9.81,15.73.49,12.95,10,18.72,22.3,18.26s21.48-6.56,21-18.79c-.33-9-5.18-13.32-13.39-16.19l.1-.49,9.22.86C56.37,247.71,59.55,254.14,59.83,261.58Z"/><path d="M62.63,222.34C61.35,230,54.7,234.09,46,232.63c-9.29-1.56-14.36-8.68-13.17-15.78A10.45,10.45,0,0,1,46,208.28l-3.4,20.24a19.42,19.42,0,0,0,2.69.63c7.58,1.27,13.67-1.29,14.85-8.34.62-3.72-.19-7.94-3.21-10.57L57,210C61.29,212.2,63.56,216.83,62.63,222.34Zm-21,5.91,2.4-16.45-.35-.06c-6-1-9.11,1-9.87,5.46C33,222.17,35.88,226.24,41.68,228.25Z"/><path d="M66,201.79l-.12,0c-1.6-1.78-3.18-2.53-6.17-3.59l-14-4.94a5.06,5.06,0,0,0-5.12,1l-.11,0L39.37,188l5.15,1.82.13-.2a14.06,14.06,0,0,1-1.32-11.93c1.87-5.26,5.92-6.81,11.07-5l12.67,4.48c3.11,1.1,4.82,1.65,7.11,1.12l.11,0-1.88,5.32-.11,0c-1.6-1.78-3.29-2.57-6.18-3.59L54,175.78c-3.79-1.35-7.24-.78-8.92,4A12.93,12.93,0,0,0,45.67,190l15,5.3c3,1.06,4.71,1.61,7.11,1.12l.12,0Z"/><path d="M74.73,164.78,55.55,154.57,54,157.43l-.11-.05-1.83-7.91,0-.11L56,151.42l4.17-7.84,1,.51L57,151.92l19.28,10.26c2.7,1.44,4.7,1,6.14-1.69a11.58,11.58,0,0,0,1.25-5h.27a9.34,9.34,0,0,1-.53,7.13C82,165.07,79.28,167.2,74.73,164.78Z"/><path d="M81.06,122.36c-4.81-.69-7.16.65-8.87,3-2.19,3.08-2,6.45.58,8.29,3.08,2.19,6,.1,9.8-2.38s7.87-4.86,12.37-1.66c4.1,2.92,4.61,7.7.57,13.37a17.2,17.2,0,0,1-6,5.44l-5.34-3.05.18-.47c5.06,1.17,8.3.24,10.77-3.23,2.78-3.91,2-7.52-.78-9.46-3.23-2.3-6.63-.3-10.1,2.09s-7.76,5-12,2c-4.55-3.24-3.19-8.46-.38-12.42a18.37,18.37,0,0,1,4.64-4.65l4.7,2.6Z"/><path d="M105.1,104.82a2.82,2.82,0,0,1,.06-4,2.82,2.82,0,1,1,3.93,4A2.83,2.83,0,0,1,105.1,104.82Z"/></svg>