<svg xmlns="http://www.w3.org/2000/svg" viewBox="0 0 512 512"><defs><style>.a{fill:#231f20;}</style></defs><title>ffaf3</title><path class="a" d="M112.13,74.45l.08.08a8.55,8.55,0,0,0,2.59,6.32l18.26,20.75A8.59,8.59,0,0,0,139,105l.07.08L121,121,114.37,116l.23-.42c4.2.9,8.11,2.13,9.36,1l10.51-8.8-12-13.68-6.73,5.93c-1.13,1-.11,4.1.15,6.17l-.33.29-6.81-7.74.34-.29c1.82.47,4.82,1.69,5.91.73l6.73-5.93-9.2-10.45c-2-2.26-3-2.88-5.94-3.38l-.07-.08Z"/><path class="a" d="M95.39,107.77a13.72,13.72,0,1,1-19.55,1.77A13.93,13.93,0,0,1,95.39,107.77ZM80.26,126.36c5.62,4.57,12.37,5.54,16.63.31S98.82,115,93.2,110.45s-12.25-5.59-16.58-.28S74.64,121.78,80.26,126.36Z"/><path class="a" d="M64.33,138.59l11.87,7a4.7,4.7,0,0,0,4.84,0l.1.06,0,5.79L75.28,148l-.19.21c1,3.66,3.09,7.62,1.06,11.08L72.3,157l.06-.1a9.86,9.86,0,0,0,2.78-3.09c.45-.76-.25-3.76-1.12-6.34L63,141c-2.55-1.49-4-2.29-6.29-2.27l-.1-.06,2.65-4.51.1,0C60.47,136.13,61.78,137.09,64.33,138.59Z"/><path class="a" d="M34.05,189.52l.11,0a8.62,8.62,0,0,0,5.76,3.7l26.85,6.55a8.58,8.58,0,0,0,6.81-.64l.1,0L68,222.57l-8.26-.24,0-.47c4-1.67,7.87-2.9,8.27-4.52l3.57-13.24-17.7-4.32-2.13,8.72c-.35,1.46,2.27,3.42,3.67,5l-.11.44-10-2.44.1-.44c1.77-.66,4.93-1.38,5.27-2.79l2.12-8.71-13.53-3.3a8.3,8.3,0,0,0-6.81.63l-.11,0Z"/><path class="a" d="M24.58,237.22c.6-7.17,6.45-11.48,14.61-10.8,8.72.74,14,6.94,13.39,13.6A9.7,9.7,0,0,1,41.1,249l1.59-19a19,19,0,0,0-2.54-.38c-7.1-.6-12.54,2.24-13.1,8.85-.29,3.5.78,7.34,3.78,9.55l-.13.27C26.6,246.5,24.15,242.38,24.58,237.22Zm18.94-7.08-1,15.41.33,0c5.61.47,8.35-1.59,8.71-5.81C52,235.1,49.05,231.56,43.52,230.14Z"/><path class="a" d="M24.59,275c-.55-7.17,4.53-12.37,12.69-13,8.73-.67,14.89,4.61,15.4,11.27a9.71,9.71,0,0,1-9.9,10.66l-1.47-19a18.62,18.62,0,0,0-2.57,0c-7.11.55-12,4.23-11.51,10.84.27,3.5,1.94,7.11,5.26,8.81l-.09.29C28.07,283.82,25,280.14,24.59,275Zm17.56-10,1.52,15.36.34,0c5.61-.44,8-2.91,7.66-7.13C51.31,268.5,47.84,265.47,42.15,265Z"/><path class="a" d="M30.61,311.9c-1.67-6.53,2.14-12.1,9.92-14.09s16,1.9,18.18,10.43a13.5,13.5,0,0,1,.14,6.63L70.19,312a3.84,3.84,0,0,0,2.74-3.23l.11,0,3.56,4.5-36.28,9.26c-3.4.86-3.79,1.6-4.09,3.57l-.1,0-2.85-4.39,5.29-1.35,0-.22A10.76,10.76,0,0,1,30.61,311.9Zm9,7.89,12.2-3.11c6-1.53,6.61-5.66,5.77-8.95-1.52-5.94-7.91-8.91-15.25-7s-10.83,6.9-9.45,12.3A9.7,9.7,0,0,0,39.58,319.79Z"/><path class="a" d="M44,343l-2.79-.19-.23-.5,34.07-15.66a3.86,3.86,0,0,0,2.12-3.67l.1-.05,4.31,3.78-18.93,8.7.07.16a10.34,10.34,0,0,1,8.12,6.32c2.84,6.18.15,12.87-7.19,16.25-6.84,3.14-15.31,2.19-19.12-6.12C42.78,348.13,43.1,345.1,44,343Zm17.79,12.43c7-3.23,9-9,6.7-14.11a10.12,10.12,0,0,0-6.91-5.42l-10.88,5c-5.87,2.7-6.78,7.4-5,11.3C48,357.08,54.37,358.81,61.81,355.39Z"/><path class="a" d="M69.89,388.18a12.54,12.54,0,0,1-8.22-5c-2.23-3.27-1.93-6.58,1-8.59,5.38-3.67,12.79,2.14,16.87,7l4.24-2.89c2.44-1.66,3.91-4.35,1.14-8.4a14,14,0,0,0-6.42-5.06l.17-.45a13.58,13.58,0,0,1,8.55,5.9c3.48,5.11,1.53,8-1.41,10l-13.91,9.48c-1.24.85-1.6,1.9-.75,3.14a3.65,3.65,0,0,0,2.61,1.46v.2a4.46,4.46,0,0,1-5-1.71C67.42,391.28,68.13,389.45,69.89,388.18Zm.79-.53,8.14-5.56c-4-4.56-9.65-8.52-13.89-5.63-2.16,1.47-2.83,3.75-.85,6.65A11,11,0,0,0,70.68,387.65Z"/><path class="a" d="M87.46,415.68c-4.81-5.11-4.47-12.32,1.46-17.89,6.78-6.37,15.3-5.36,20.38,0a17.08,17.08,0,0,1,3.77,6.7l-3.55,3.87-.31-.16c1.37-4.65,1.42-7.53-1.29-10.41-4.12-4.39-10.08-4.22-15.81,1.16C87,403.84,85.47,409.83,90,414.62c2.33,2.47,6,4.32,9.63,3.57l.11.28C95.67,420.35,91,419.42,87.46,415.68Z"/><path class="a" d="M111.85,428.56l19-24.37A3.84,3.84,0,0,0,131,400l.07-.08,5.57,1.36-22.54,29c-1.78,2.29-2.8,3.69-3.07,5.95l-.07.08L106.81,433l.07-.09C108.91,432.06,110.07,430.84,111.85,428.56Zm7.74-3.15,11.75-2.23c1.63-.36,2.65-1,1.76-3.07l.07-.09,5.1,4-.07.08c-2.9-.7-3.68-.53-6.38.05l-9.35,1.76-.25,12.66c0,3.45.17,5.14,1.06,7.17l-.07.09-4-3.08Z"/><path class="a" d="M163,468.57l0-.11c2.64-1.13,3.31-2,5.77-5l23.36-28.41,1.42.5.39,37.3c0,4.37.15,5.13,1.38,7l0,.1-6.57-2.31,0-.11c1-.65,2.16-2.25,2.18-5.85l0-9.59L176,456.84l-6,7.35c-2.37,2.89-1.95,4.87-1.11,6.35l0,.1Zm13.78-12.64,14.14,5,0-22.35Z"/><path class="a" d="M210.77,483.19l0-.11c1.33-1.77,1.73-3.35,2.16-6.27l2-13.62a4.72,4.72,0,0,0-1.82-4.49v-.11l5.39-2.14-.74,5,.21.09a13,13,0,0,1,10.63-3.34c5.13.76,7.27,4.17,6.53,9.19l-1.81,12.35c-.45,3-.64,4.69.25,6.68l0,.11-5.18-.76,0-.11c1.33-1.78,1.75-3.46,2.16-6.27l1.74-11.8c.54-3.69-.59-6.73-5.22-7.42a12,12,0,0,0-9.24,2.36l-2.16,14.61c-.43,2.92-.61,4.58.26,6.68l0,.11Z"/><path class="a" d="M261.67,488.11c-6.74.21-11.36-4.72-11.61-12.74s5.32-15.22,14.12-15.49a13.51,13.51,0,0,1,6.51,1.3l-.36-11.7a3.86,3.86,0,0,0-2.56-3.37V446l5.17-2.51,1.17,37.43c.11,3.51.73,4.05,2.6,4.77v.11l-4.9,1.83-.17-5.46h-.23A10.74,10.74,0,0,1,261.67,488.11Zm9.64-7.05-.39-12.58c-.19-6.19-4.09-7.68-7.48-7.58-6.13.2-10.42,5.79-10.18,13.37s4.39,12.07,10,11.9A9.73,9.73,0,0,0,271.31,481.06Z"/><path class="a" d="M325.41,477.05l0-.11a8.6,8.6,0,0,0-.16-6.83l-9.62-25.91a8.6,8.6,0,0,0-4.34-5.28l0-.1,22.57-8.38,4.43,7-.36.31c-3.61-2.34-6.81-4.9-8.38-4.32l-13,4.46,6.35,17.08,8.41-3.12c1.41-.53,1.56-3.79,2.06-5.82l.41-.15,3.59,9.66-.42.15c-1.53-1.09-3.9-3.3-5.26-2.8L323.23,456,328.08,469c1.05,2.82,1.82,3.78,4.34,5.29l0,.1Z"/><path class="a" d="M358.88,455.86l-6.55-12.1a4.68,4.68,0,0,0-4.14-2.51l-.05-.1,3-4.93,3.21,5.93.27-.09c1.08-3.62,1.31-8.11,4.84-10l2.12,3.92-.1.05a9.89,9.89,0,0,0-4,1.2c-.79.42-1.74,3.35-2.33,6l6.09,11.27c1.41,2.6,2.25,4,4.21,5.2l.05.1L361,462.28l-.05-.1C360.9,460,360.28,458.46,358.88,455.86Z"/><path class="a" d="M366.41,419.05a2.29,2.29,0,1,1,.61-3.18A2.27,2.27,0,0,1,366.41,419.05Zm14.6,23.7-7.76-11.44a4.77,4.77,0,0,0-4.35-2l-.06-.09,2.71-5.34,11.73,17.29c1.66,2.45,2.65,3.8,4.71,4.76l.06.09-4.33,2.94-.06-.09C383.44,446.62,382.64,445.14,381,442.75Z"/><path class="a" d="M409.25,430.41c-5.42,4.73-12.62,3.76-18-2.41-5.76-6.59-5.21-14.69-.17-19.09a9.72,9.72,0,0,1,14.47,1.58L391.19,423a18.22,18.22,0,0,0,1.56,2c4.69,5.38,10.57,7.12,15.57,2.76,2.65-2.31,4.54-5.81,3.93-9.49l.28-.1C414.26,422.34,413.16,427,409.25,430.41Zm-18.53-8.09,11.42-10.4-.22-.26c-3.7-4.24-7.11-4.67-10.3-1.88C388.09,412.85,387.74,417.45,390.72,422.32Z"/><path class="a" d="M428.14,411l-.09-.07c-.84-2.05-2-3.2-4.27-5.07l-10.67-8.7a4.72,4.72,0,0,0-4.79-.74l-.08-.07.92-5.72,3.93,3.21.18-.14a13,13,0,0,1,2.59-10.84c3.27-4,7.3-4.11,11.23-.9l9.67,7.89c2.38,1.93,3.71,2.95,5.87,3.2l.09.07-3.31,4.06-.09-.07c-.84-2.05-2.07-3.27-4.27-5.07l-9.24-7.53c-2.9-2.36-6.09-3-9,.68a12,12,0,0,0-2.72,9.14l11.45,9.34c2.28,1.86,3.61,2.88,5.87,3.2l.08.07Z"/><path class="a" d="M458.46,369.71c-3.26,5.9-9.85,7.34-16.88,3.46s-10.36-12.35-6.1-20.06a13.51,13.51,0,0,1,4.45-4.92l-10.24-5.67a3.85,3.85,0,0,0-4.21.48l-.1-.06.48-5.71,32.78,18.12c3.07,1.69,3.85,1.43,5.42.2l.1.05-.93,5.15-4.78-2.64-.11.19A10.77,10.77,0,0,1,458.46,369.71Zm-1.12-11.9-11-6.09c-5.41-3-8.68-.41-10.33,2.56-3,5.37-.34,11.91,6.29,15.58s12.62,2.39,15.32-2.49A9.74,9.74,0,0,0,457.34,357.81Z"/><path class="a" d="M456.17,320.42c-4.48.58-6.25,2.37-7.17,4.94-1.19,3.31-.18,6.27,2.6,7.27,3.3,1.19,5.42-1.42,8.16-4.58s5.82-6.31,10.65-4.58c4.4,1.58,6,5.73,3.86,11.81a16.14,16.14,0,0,1-4,6.38l-5.54-1.4,0-.46c4.82-.22,7.48-1.87,8.82-5.59,1.51-4.2-.13-7.21-3.07-8.27-3.46-1.24-6,1.39-8.51,4.4s-5.68,6.42-10.19,4.8c-4.88-1.75-5-6.76-3.44-11a16.81,16.81,0,0,1,3-5.32l4.85,1.15Z"/><path class="a" d="M481,310.78c-1.71-1.41-3.27-1.88-6.17-2.43l-29.61-5.66a4.75,4.75,0,0,0-4.57,1.63l-.1,0-1.32-5.59,20.58,3.93a13,13,0,0,1-2.88-10.76c1-5.09,4.47-7.09,9.45-6.13l12.26,2.34c3,.57,4.67.83,6.69,0l.11,0-1,5.14-.11,0c-1.72-1.4-3.38-1.89-6.17-2.43l-11.72-2.23c-3.66-.7-6.75.3-7.63,4.9a12.25,12.25,0,0,0,2,9.33l14.56,2.78c2.85.55,4.5.81,6.64,0l.11,0-1,5.15Z"/><path class="a" d="M452.52,268.3a2.28,2.28,0,1,1-2.14-2.42A2.26,2.26,0,0,1,452.52,268.3Zm27.68,2.94-13.8-.85a4.73,4.73,0,0,0-4.26,2.19H462l-2.57-5.4,20.85,1.28c2.95.19,4.62.23,6.64-.81h.11l-.32,5.23h-.11C484.75,271.69,483.09,271.42,480.2,271.24Z"/><path class="a" d="M500,250.73c-2-.92-3.65-1-6.59-.76l-26.24,1.85a4.73,4.73,0,0,0-4,2.75h-.11l-3.24-4.79,4.94-.36,0-.39a10.34,10.34,0,0,1-5.37-8.78c-.48-6.78,4.4-12.1,12.46-12.67,7.5-.53,15.09,3.34,15.76,12.74A11,11,0,0,1,486,247.7l7.17-.51c2.95-.21,4.61-.38,6.48-1.69h.11l.37,5.22Zm-27.28-20c-7.79.55-11.7,5.24-11.32,10.58a10.09,10.09,0,0,0,4.57,7.78l17.51-1.24a9.07,9.07,0,0,0,3.14-7.77C486.2,234.05,480.79,230.19,472.73,230.76Z"/><path class="a" d="M464.71,199.87a2.62,2.62,0,0,1-3.23-1.81,2.62,2.62,0,1,1,5-1.42A2.61,2.61,0,0,1,464.71,199.87Z"/><path class="a" d="M461.79,150.18l-.09,0c-3-.56-4.3-.22-7.05,1.25l-29,15.52,4.22,7.41c.77,1.42,6.58,1.54,10.47,1.6l.06.47L431,179.07l-13.84-25.84,7.37-6.41.36.31c-2,3.4-5.28,8.08-4.47,9.6l3.83,7.62,29-15.52a9.15,9.15,0,0,0,4.94-5.18l.1-.05Z"/><path class="a" d="M428.26,134c-1.88,2.89-2.45,4.58-2.43,5.93l-.09.07-3.94-4.84.09-.07c.79,0,2.74-.87,4.29-3.21l9.71-14-16.17,5.55-.05,0c-1.52,2.46-2.62,4.36-2.46,5.88l-.09.07-3.76-4.62.09-.07c.79,0,2.59-1,4.52-4l8.9-13.86-15,5.91c-3.26,1.29-4.66,2.57-4.39,4.58l-.08.07-3.49-4.28.09-.07c2.08.53,3.29.34,6.64-1l20.53-7.88.21.26L420.53,122l19.66-6.74.21.26Z"/><path class="a" d="M406.57,97.58A13.71,13.71,0,1,1,405.09,78,13.92,13.92,0,0,1,406.57,97.58ZM388.21,82.19c-4.65,5.55-5.72,12.29-.55,16.62s11.61,2.11,16.27-3.44,5.77-12.18.52-16.58S392.87,76.64,388.21,82.19Z"/><path class="a" d="M347.4,42.52c11.64,5.09,14.71,16.71,10,27.59S341.3,86.2,329.05,80.84a35.55,35.55,0,0,1-11.14-7.91L320,65.28l.46.08c.67,7.78,3.48,12,9.2,14.55,11,4.83,19.7-.81,24.28-11.28s3.19-20.62-7.23-25.18c-7.66-3.35-13.23-1-18.95,4.66l-.37-.28,4.44-7.36C334.41,39.81,341.07,39.75,347.4,42.52Z"/><path class="a" d="M303.46,28.69c7,1.49,10.59,7.83,8.89,15.84-1.81,8.56-8.62,13-15.16,11.6a9.72,9.72,0,0,1-7.43-12.51l18.64,4a18.85,18.85,0,0,0,.7-2.47c1.48-7-.67-12.73-7.15-14.11-3.44-.72-7.38-.14-9.94,2.57l-.25-.17C294,29.54,298.39,27.62,303.46,28.69Zm4.66,19.67L293,45.49l-.07.33c-1.16,5.5.54,8.48,4.68,9.36C302.14,56.15,306,53.67,308.12,48.36Z"/><path class="a" d="M276.53,25.29v.11c-1.13,1.91-1.36,3.51-1.48,6.47l-.53,13.75a4.69,4.69,0,0,0,2.29,4.27V50l-5.12,2.7.2-5.07-.23-.06A13,13,0,0,1,261.43,52c-5.17-.2-7.67-3.36-7.47-8.43l.48-12.47c.12-3.06.13-4.74-1-6.62v-.11l5.23.2v.12c-1.14,1.9-1.37,3.62-1.48,6.46l-.47,11.92c-.14,3.73,1.31,6.63,6,6.81a12,12,0,0,0,8.94-3.33l.58-14.76c.11-2.95.12-4.62-1-6.62v-.11Z"/><path class="a" d="M236.16,30.78l2.12,20.06,3-.32v.11l-5.13,5.53H236l-.43-4-8.2.87-.1-1,8.2-.87L233.38,31c-.3-2.82-1.67-4.13-4.5-3.84a10.83,10.83,0,0,0-4.53,1.66l-.14-.21a8.72,8.72,0,0,1,5.76-3.3C232.58,25,235.65,26,236.16,30.78Z"/><path class="a" d="M200.43,53.2c2.94,3.43,5.4,3.93,8.06,3.3,3.41-.81,5.35-3.27,4.67-6.14-.81-3.42-4.16-3.77-8.3-4.33s-8.47-1.43-9.66-6.42c-1.08-4.55,1.5-8.2,7.78-9.69a16.1,16.1,0,0,1,7.53-.12l1.86,5.4-.41.21c-2.82-3.91-5.65-5.25-9.5-4.33-4.34,1-6,4.05-5.25,7.08.85,3.58,4.45,4.27,8.33,4.73s8.49,1.25,9.6,5.91c1.19,5-2.95,7.86-7.34,8.9a16.87,16.87,0,0,1-6.09.41L200,53.42Z"/><path class="a" d="M171.68,57a2.62,2.62,0,0,1-1.35,3.45,2.62,2.62,0,0,1-2.1-4.8A2.61,2.61,0,0,1,171.68,57Z"/></svg>