<svg xmlns="http://www.w3.org/2000/svg" viewBox="0 0 177.07 309.53"><title>logo</title><path d="M0,182.77c0-.94-.25-2,1.18-2.29.31-.06.45-.77.74-1.11a1.94,1.94,0,0,1,1.65-.88c.93,0,1.1-.25.91-1.18a9.27,9.27,0,0,0-.67-1.72c-.51-1.18-.52-1.32.59-2.19a1.85,1.85,0,0,0,.6-1.76c0-.6-.17-.74-.64-.25-.13.14-.45.12-.68.13-1.41,0-2.26-1-1.63-2.24a20.41,20.41,0,0,1,2.11-3.12,2.31,2.31,0,0,1,2-1.2c.4,0,1.08-.51.62-1.46A12.09,12.09,0,0,1,6,160.33c0-.26.17-.58.3-.86.22-.49.5-1,.67-1.47.54-1.64.46-1.75-1.25-2-.23,0-.64-.12-.64-.18,0-.29,0-.69.21-.83.93-.72,1.38-2.1,2.92-2,.34,0,.73-.62,1.05-1,.14-.16.27-.56.2-.64-1.21-1.2.11-1.87.61-2.6s1.53-1.35.47-2.47a1.36,1.36,0,0,1,.3-1.27c.9-.52.44-1.15.11-1.53a2.37,2.37,0,0,1-.45-2.07,17.44,17.44,0,0,1,1-4.57c.21-.46.68-1.3,1.52-.51.06.05.43-.09.43-.13a6.28,6.28,0,0,1,1-4.11c.14-.21-.12-.75-.29-1.09s-.54-.45-.66-.73c-.45-1.09.17-2,1.45-2.22s1.56-.41,1.51-1.65c0-.86.26-1.73-.37-2.61-.27-.38.48-1.36.35-2-.41-1.84.78-2.53,2-3.27a21,21,0,0,0,2-1.23c.77-.59,1.57-1.44,1.48-2.35-.19-1.92,1.11-3.08,1.92-4.48.28-.48.52-.64.21-1.31-.39-.84.22-1.63,1.21-1.58s1.18-.45,1.55-1.08c.27-.47.13-.69-.14-1.05a2.87,2.87,0,0,1,.25-4.07,2.66,2.66,0,0,0,.61-1.26c.34-1.41.54-1.48,2.08-1.58.79-.05,1.22-.56.83-1.24s-.62-.81-.08-1.44.05-.78-.61-.85c-.9-.1-1-.42-.47-1,.39-.43.84-.81,1.23-1.24.63-.69,1.83-.91,1.56-2.35-.09-.51.65-1.2,1.09-1.74.09-.11.78,0,.79.11.16,1.22.7.88,1.23.3a7.44,7.44,0,0,0,1.29-1.71,19.21,19.21,0,0,1,3.11-4.72c.41-.45,1.22-1,.46-1.94-.09-.11.4-1,.7-1.09.55-.09,1.49-.46,1.69.32s.7.7,1.07.56.68-.59,1-.94c.08-.1,0-.33,0-.49.1-.63-.42-1.53.82-1.69a4.16,4.16,0,0,0,.16-1.61c0-.69,0-1.25.87-1.38.26,0,.48-.43.71-.68a3.81,3.81,0,0,1,2.22-1.18c1-.13,1.42-.79,1.06-1.91s-.08-1.5.87-1.59c.33,0,.67,0,1,0,.88-.08,1.25-.47,1.29-1.39,0-.67,0-1.34,0-2,0-.41-.31-1.15.52-1.08.51,0,1.41-.59,1.51.65,0,.21.33,1,1,.54.37-.29,1.2-.11,1-1a1.34,1.34,0,0,1,1-1.69c1.1-.37,1.13-.44.35-1.36-.4-.47-.53-.83,0-1.22s1.08-.66,1.54-1.08,2-.39.67-1.58c-.09-.08.19-.76.45-1a1.74,1.74,0,0,1,1.12-.26c.59,0,1.22.43,1.72.29s.82-.79,1.26-1.17a2.06,2.06,0,0,1,1-.61A1.35,1.35,0,0,0,68,54a1.26,1.26,0,0,1,1.47-1c1.13.09,1.45-.24.6-1.21-.11-.13.16-.77.41-1a1.61,1.61,0,0,1,1.11-.28,16.13,16.13,0,0,0,1.8.44,10.61,10.61,0,0,0,1.8-.45,16.63,16.63,0,0,1,1.69-.15c-.13-.5-.28-1-.38-1.5a2.44,2.44,0,0,1,1.16-2.75c.89-.54,2.2-.53,2.42-1.93,0-.08.27-.18.41-.17,2.42.07,4.64-1.24,7.09-1,.35,0,1,.21.89-.46,0-.51.44-1.28-.36-1.49-.54-.14-.74-.34-.59-.8a7,7,0,0,1,1-2.32c1.5-1.73,1.05-3.58.66-5.48A8,8,0,0,1,89,31a.49.49,0,0,1,.83-.41,6.8,6.8,0,0,1,.71.7c.4.39.68.17,1-.12s.33-.64-.06-.89c-.59-.38-.56-.95-.54-1.53s.5-1.12.06-1.87c-.35-.6.29-1.07.94-1.42,1.16-.62,1.28-1.24.68-2-.42-.57-1.35-.83-1.17-1.76a5.69,5.69,0,0,1,1.11-3,1.83,1.83,0,0,0,.23-.52c-.24,0-.53-.17-.7-.08-.48.26-.89.66-1.37.92a.68.68,0,0,1-.64-.1c-.12-.13-.15-.56-.05-.63.56-.43.81-1.37,1.74-1.19a1.36,1.36,0,0,0,1.64-.79c.27-.71,1-1.56.5-2.25-1.24-1.88.07-2.83,1.21-3.87.28-.26.69-.37,1-.6.55-.43.53-1.71-.14-2a1.47,1.47,0,0,1-1-1.93,1.79,1.79,0,0,1,.82-1.08,4.26,4.26,0,0,1,1.78-.51c.92,0,1.22-.48,1.41-1.34a6.92,6.92,0,0,1,1.09-2,.69.69,0,0,1,.65-.1,11.65,11.65,0,0,0,1.4.84c.56.18,1.25.47,1.4-.66.06-.47.69-.84,1.4-.75,1.68.21,3.36.33,5,.54a1.38,1.38,0,0,1,.77.53,5.52,5.52,0,0,1,.88,1.38c.26.66,1.51.22,1.3,1.14-.11.49-.68.89-1.08,1.29s-.44.41-.05.72c.64.51.8,1.5,1.74,1.75.15,0,.23.33.34.51-.15.05-.31.17-.43.14-1.12-.24-1.22.63-.92,1.16.47.81.72,1.41,0,2.14-.08.08.08.61.17.63,1.44.21.66.82.33,1.45-.24.45-.52,1.35-.38,1.44,1.29.85.38,1.33-.15,2a3.44,3.44,0,0,0-.91,2.07,4.06,4.06,0,0,1-.49,3.19,3.87,3.87,0,0,0-.62,2.74,1.89,1.89,0,0,1-.33,1.87c-.2.2.05.87.13,1.31s.31.68.21.89c-.67,1.38-.24,3.11-1.06,4.29-.61.88.09,2-.9,2.67,0,0,.14.41.22.63.67-.42.94,1.17,1.72.34a2.1,2.1,0,0,1,.61-.32l2.62-.57a2.35,2.35,0,0,0,2.37-1.29c.62-1.07,1.94-1.47,2.35-2.73.16-.49.77-.86,1.2-1.25s.44-.37-.17-.66c-.14-.07-.32-.12-.4-.23-.34-.51-1.3-.73-1-1.54a1.39,1.39,0,0,1,1.68-.73c.16,0,.34,0,.5,0,.77.13.86-.36.75-.89-.66-3.09-.71-3.1.39-5.77.09-.23-.08-.56-.13-.85s-.24-.73-.12-.83c.7-.63.28-1.41.35-2.11a2.65,2.65,0,0,0-.31-1,5.68,5.68,0,0,0,1-.1c.45-.12.54-.87.17-.88-.9,0-.87-1.61-2-1.15-.12,0-.53-.54-.75-.87-.06-.09,0-.3.11-.44s.22,0,.34.07a4.18,4.18,0,0,0,1.13.27c.73,0,1-1.83,2.17-.52a4.13,4.13,0,0,0,.62-1.82c-.07-.14-.26-.22-.34-.36a2.67,2.67,0,0,1-.35-.85c-.06-.44-.19-1,0-1.32.38-.53.26-.78-.05-1.26-.19-.3,0-.87.07-1.33.06-.86.84-1.05,1.4-1.36s1.41-.33.55-1.24a1.22,1.22,0,0,1-.18-.67c-.06-.58-.12-1.28.54-1.5s1.55-.35,1.78-.06c.85,1,1.91.79,3,.81s2-.11,2.94.85c.71.73,2.37,0,3.18-1C137.46,0,137.64,0,139.15.4a11.46,11.46,0,0,0,1.2.13c.49.07,1.22-.34,1.19.72s-.24,1.58-1.18,1.77a2.61,2.61,0,0,1-.5,0c-.17,0-.45-.05-.48,0-.31.69-.87,1.44-.76,2.08s1,1,1.51,1.4c0,0,.37-.14.37-.22,0-1.44,1.13-.46,1.67-.74,0,0,.37.35.33.5-.11.5.46,1.27-.4,1.46-1.13.25-1.1,1-1.08,1.88a10.25,10.25,0,0,0,0,2.24c.29,1.13-.79,1.55-1,2.35s.19,1.87-.23,2.39c-1.64,2-.57,4.3-.72,6.43-.08,1.13,0,2.76-.72,3.56-.44.5-.14.65.14.91.64.59.84,1.31.1,1.86s-.43,1.19-.72,1.72-1,.81-.92,1.64c0,.3-.48.62-.62,1a2.2,2.2,0,0,0-.27,1.33A10.69,10.69,0,0,0,137.3,37c.35.53.66.7.77-.22,0-.3.69-.6,1.11-.76.22-.08.8.25.8.26-.36,1.18.84,1.16,1.28,1.7.71.87,1,.55,1.43-.34.58-1.07,1.51-.92,2.34.11.36.44.8,1,1.42.71a2.07,2.07,0,0,1,2.12,0c.61.31,1.46-.29,2.1.39a1.17,1.17,0,0,0,.93.12c1.17-.25,1.93.58,2.87.92.7.25.29,1.65,1.53,1.14a5.86,5.86,0,0,1,2.23,0c.86,0,.87.06.54,1-.1.29-.16.6-.25.9-.15.53-.72,1,.14,1.56.62.41.91.71,1.63.11.41-.34,1-.09,1.38.73a32.38,32.38,0,0,0,3,4.53c.36.51.74,1,1.59.32a4.61,4.61,0,0,1,2.21-.62,1.48,1.48,0,0,1,1.07.3c.27.23-.12,1.47-.42,1.68-.72.52-2,.39-2.06,1.67-.07,1.11,1,1.41,1.55,2.1a18.31,18.31,0,0,0,1.4,1.43c.66.7,1.23,1.27,2.27.4.56-.47,1.11.29,1.23.76a2.5,2.5,0,0,1-.24,1.62c-.22.44-.33.74.07,1,.19.14.34.87.75,0a1.74,1.74,0,0,1,2.13-1,1,1,0,0,1,.41,1.69,2,2,0,0,1-1.92.82c-.56-.09-.68.23-.67.73s.06.81.65.77a2.93,2.93,0,0,1,1,0,1.27,1.27,0,0,1,.64,2c-.1.13-.24.23-.35.36-.31.37-.9.78-.86,1.11a4.64,4.64,0,0,0,.82,2.13c1.1,1.45,1.62,2.86.72,4.63-.27.53-.36,1.59,0,1.9.71.69,0,1.37.18,1.79a4.62,4.62,0,0,1,.25,2.15,5.29,5.29,0,0,1-1.07,3.3c-.21.31-.51.9-.38,1,1.25,1.49-.54,2.91-.06,4.37.07.22-.18.58-.34.84a10.06,10.06,0,0,0-1,1.58c-.21.55-.49,1.35.66,1.37.08,0,.15.41.23.63-.27.09-.57.31-.8.25a3,3,0,0,0-3.73,1.66,12.46,12.46,0,0,0-1.16,2.28,6.91,6.91,0,0,1-1.54,2.1c-.19.23-.56.55-.76.5-1.09-.28-1.65.91-2.35.94-1.36.05-1.27.77-1.14,1.58.18,1.06-.4,1.12-1.15,1a11.34,11.34,0,0,1-1.39-.27c-1-.28-2-.58-2.89.42-.14.17-.43.37-.59.33-1.26-.32-2.14.46-3.09,1-.52.3-1,.93-1.63.07-.05-.08-.54.22-.82.23-1.12,0-2.37.35-3.32,0s-2.33.26-3.19-.76c-.15.24-.28.48-.44.71-.31.43-.95.4-.95,0,0-2-1.74-1.76-2.81-2.18-.78-.31-1.73,0-2.42-.9-.23-.3-1.08-.19-1.64-.15a3.62,3.62,0,0,1-2.42-.86c-.66-.45-1.71-.28-1.85-1.47a.77.77,0,0,0-.51-.51,1.14,1.14,0,0,1-.83-1.81c.44-.71.19-1-.26-1.29-.24-.17-.6-.2-.84-.37-.41-.31-.77-.71-.22-1.19,1.62-1.41.51-2.86-.17-4a3.84,3.84,0,0,1-.58-2c0-1.25.05-2.5,0-3.75a5.51,5.51,0,0,0-.5-1.78.92.92,0,0,0-.73-.38c-.25,0-.67.19-.72.38a16.61,16.61,0,0,0-.51,2.79c-.1,1.35.22,2.77-.85,3.91a1,1,0,0,0-.16.67,5.8,5.8,0,0,1-.47,2.81,1.6,1.6,0,0,0,.22,1.36c.41.57.25.93-.2,1.22-1.39.9-1,2.29-1.06,3.57,1.23.72.18,1.66-.12,2a6.31,6.31,0,0,0-1.39,4.45c0,1.17-.07,2.34,0,3.5a6.32,6.32,0,0,1-1.92,5c-.87.94-.88,1,.08,2.22.4.5.52.9,0,1.21-1.18.64-.16,2-1,2.78-.06.05.39.75.36.77-.86.59-.27,1.55-.62,2.27s-1.43,1.45-.37,2.45c.07.06,0,.33-.07.45-1.37,2.12-1.47,4.5-1.43,6.91,0,1,.27,2.15-.84,2.93-.22.15-.08.77-.17,1.16a4.3,4.3,0,0,1-.41,1.33c-.66,1.09-.67,1.22.25,1.86.63.43.62.43,0,1a1,1,0,0,0-.36.52c-.14,1.52-1.92,2.4-1.54,4.13.09.41-.1,1.24-.29,1.28-.66.13-1.15.48-1.13,1.05,0,.39.53.76.82,1.14,0,.06.13.14.12.2a5.33,5.33,0,0,0-.44,1.79c.06.48.61.89.94,1.35a.26.26,0,0,1,0,.24c-1.49,1.7-.64,4.19-2,5.93a1.86,1.86,0,0,0,0,2.61.67.67,0,0,1-.13.64.65.65,0,0,1-.64,0c-.76-.75-.86,0-.66.37.89,1.52.28,2.86-.3,4.25-.48,1.15,0,2.59-1.06,3.57a.35.35,0,0,0,0,.34c1.39,1,.64,1.93-.16,2.76-.64.67-.59.85.34.84.21,0,.42.32.63.49-.22.16-.44.45-.67.46-.76,0-1.16.19-.62,1,.13.19.33.5.26.62a5,5,0,0,0-1,3.1c0,.08-.36.29-.56.29-.94,0-1.19.15-.63,1.14.36.64.14,1.59.23,2.4.06.54-.31.88-.45,1.31s.44.86.41,1.27a4.35,4.35,0,0,1-.59,1.74c-.5.87-1.11,1.59-.42,2.71.3.49,0,1.3.06,2s-.19,1.12.35,1.62c.31.29.26.68-.32.87-1.28.42-1.48,1.59-1.51,2.69-.07,2.27-.87,4.49-.52,6.79-.74.92-.32,2-.54,3a29,29,0,0,1-1.14,2.78c-.22.65-.17,1.26-.34,1.86s-1.06.77-1,1.59c0,.26-.42.51-.45.79-.2,1.59-.42,3.19-.5,4.79-.06,1.16,0,2.26-1.13,3.06-.76.52-.36,1.17.07,1.88.91,1.47-.28,3-.07,4.54,0,.2-.43.47-.67.7-.56.52-1.12,1-.27,1.79.25.25-.06,1.07-.15,1.62,0,.14-.27.24-.29.37-.38,3.08-.37,3.08-1.88,5.31,0,.06-.12.13-.12.2a1.09,1.09,0,0,0,.06.47.35.35,0,0,0,.33,0,14.42,14.42,0,0,0,1.73-1.24,3.46,3.46,0,0,1,2.3-1.08,1.91,1.91,0,0,0,2-1.68c.18-1.07.67-1.39,1.64-1.34a2.24,2.24,0,0,0,1.2-.1c.24-.15,1-.38.34-1-.3-.29-.29-.78.34-.85a3.76,3.76,0,0,0,3.23-2.42c.33-.75.82-.78,1.5-.07.51.53.74.38,1.09-.06.49-.62,1.31-1,1.24-2,0-.29.39-.77.71-.91a35,35,0,0,0,3.64-1.48,2.87,2.87,0,0,1,1.92.07c.36.1.74.61.65-.18-.23-2,1.55-2.14,2.61-2.94.71.39,1.37-1.25,2.11-.06.52-.32,1.05-.62,1.55-1,.07-.05,0-.35,0-.51s-.25-.23-.34-.36c-.41-.61-.5-2.5-.2-2.47a4.55,4.55,0,0,1,1.88.68c1.11.68,1.22.83,1.89-.07s1.6-.63,2.42-.86c-.24-.78-1.14-1.25-.88-2.28.13-.55.34-.62.8-.63s1.16,0,1.53.55a.94.94,0,0,0,.35.35,1.54,1.54,0,0,0,2.35-1.44,7.61,7.61,0,0,1,.2-1.35c1,0,1.21-1.47,2.32-1.11s1.7-.4,2.29-1.08a8.43,8.43,0,0,1,2.6-2.09c.75-.38,1.47-.1,1.57.64a3.87,3.87,0,0,1,0,1.25,1.92,1.92,0,0,0,.88,1.89c1.12,1,1.18,1,1.12,2a6,6,0,0,0,.51,2.55,1.25,1.25,0,0,0,1.67.94,2.71,2.71,0,0,1,3.1,3.46c-.35,1.42-1.46,2.37-1.87,3.74-.18.62-1.13.94-.93,1.88,0,.19-.34.57-.61.71-1.69.9-3.35,1.83-4.17,3.7-1.19.33-1.61,1.41-2.27,2.27-.1.13-.28.22-.34.36-.45,1-.55,2.14-1.73,2.77-1,.52-1.73,1.44-2.69,2a1.51,1.51,0,0,0-.69.75,11,11,0,0,1-3.27,3.35,2.24,2.24,0,0,1-.82.43,3.8,3.8,0,0,0-2.7,2c-.63,1-1.93,1.67-2.89,2.54a2,2,0,0,0-.74,1.17c0,1.21-1.13.87-1.64,1.34-.77-.82-.79.07-1.12.44-.66.75-1.43,1.4-2.1,2.14s-1.07,2-1.81,2.15c-1,.26-1.59,1-2.49,1.29a1.7,1.7,0,0,0-.74.6c-1,1.32-1,1.39-2.1,1.36-.66,0-1.31.17-1.43.7-.39,1.71-1.91,1.55-3,1.74a2.93,2.93,0,0,0-1.82,1.06c-.58.66-1.06,1.39-1.6,2.08-.67.84-.87.9-1.55.32-.53-.45-.74-.67-1.21.2a3.42,3.42,0,0,1-2.07,1.28c-1.92.48-3.25,1.85-4.81,2.88-.73.48-1.39,1.06-2.11,1.57-.07.05-.41-.09-.41-.17-.07-.72-.51-.92-.93-.41a2.53,2.53,0,0,1-2.19.81c-1,0-1.33.42-1.4,1.52-.15,2.35-.31,4.7-.51,7-.08.94-.65,1.78-.52,2.8a4.23,4.23,0,0,1-.41,2.57c-.24.46-.27,1-.71,1.46-.93.89-.61,2.48-1.77,3.27a3.7,3.7,0,0,1,.18.34,3.43,3.43,0,0,1-.22,3.23,1.51,1.51,0,0,0,0,1.21c.37,1,1,1.9,0,2.84.76,1.64-.34,3.09-.46,4.63a2.54,2.54,0,0,1-.87,2.16.68.68,0,0,0-.16.42c-.25,1.84-.28,1.82-2,2.5-.67.26-1.48.44-1.66,1.39,0,.23-.53.6-.72.56-1.35-.33-2.29.54-3.33,1.07-.47.24-.78.79-.76-.24-1.8-.59-2.93-2.27-4.79-2.85a5.5,5.5,0,0,1-3.19-3.13c-.45-1-.52-2.14-1.87-2.47-.28-.07-.5-.59-.64-1-.28-.75-.14-1.73-1.28-2-.13,0-.2-.56-.23-.87a8.75,8.75,0,0,0-.16-1.94c-.42-1.2-.5-1.71.43-2.06.62-.24.77-.42.73-1a4.05,4.05,0,0,1,.64-3c.25-.31.56-.93,1-.19.26-.27,1-.37.53-.92-.28-.33,0-.93-.76-1.07-.91-.17-.27-1.09-.46-1.64a5.46,5.46,0,0,1,1.09-.29c.52,0,1,0,.91-.75a1.62,1.62,0,0,1,.69-1.73,1,1,0,0,0,.29-.59c-1-.89.22-1.73,0-2.61a1.6,1.6,0,0,1,.6-1.76c.25-.19.28-.7.38-1.07s0-.78.19-.9c1-.71.57-1.2-.11-1.81-.51-.45-.85-.36-1.22.1s-.8.58-1.6.24c-1-.41-2.47.25-3.4-.23-1.45-.74-1.35.7-2,1s-.48.95-.19,1.5a4.56,4.56,0,0,0,.55,1c.48.51.24.82-.13,1.23a6.18,6.18,0,0,0-.88,1.38,1,1,0,0,0,0,.83,1.82,1.82,0,0,1-.16,2.43,7.81,7.81,0,0,0-.53,1.27c-.37.71,1,1.1.26,2a1.58,1.58,0,0,0,0,2c0,.07-.06.35-.17.42-1.69,1.11-1.78,3-2.09,4.66a13.19,13.19,0,0,0,0,2.74,8.49,8.49,0,0,1-.81,4.67,1.16,1.16,0,0,0-.18.67,2.9,2.9,0,0,1-1,2.61c-.24.24-.22.76-.26,1.16s.21.67.09.83-.67.68-.95.62c-1.47-.28-2.32.55-3.14,1.52l-3.37,1.52c-.36-.14-.81-.19-1.05-.45-.43-.45-.67-1.08-1.1-1.52s-.74-1.37-1.6-.53a14.57,14.57,0,0,1-2-1.16c-.82-.65-1.38-1.59-2.71-1.39-.61.09-.82-.65-.56-1.57,0-.15.16-.41.13-.43-1.32-.81-.54-2.69-1.8-3.52a1.67,1.67,0,0,1-.71-1.72c.06-.81.16-1.65-.7-2.21a.58.58,0,0,1,0-1,1.7,1.7,0,0,0,.76-1.7,1.44,1.44,0,0,1,1.33-1.91c.21,0,.38-.35.59-.38a.75.75,0,0,0,.49-1.27c-1.68-1.14-.31-2.47-.19-3.63.05-.49.24-1.07.26-1.62a2.28,2.28,0,0,1,.69-2,1.74,1.74,0,0,0,.3-1.34,9.13,9.13,0,0,1,.56-3.78c.18-.59.85-1.05,0-1.64a1.33,1.33,0,0,1,.33-.73c.41-.37.93-.61,1.33-1,.89-.83.94-.91.14-1.88-.51-.62-.21-1.26-.36-1.86-.24-1,.74-.64,1-1s.65-.52.09-.9-1.28-.93-1.95-1.35-1.35-.76-2-1.12c-.17-.09-.44-.28-.52-.22-1.6,1.13-1.87-.35-2.42-1.23a2.62,2.62,0,0,0-1-1.08,49.57,49.57,0,0,1-4.87-3.32c-.44-.32-.56-.43-1.12-.09s-1.29-.45-1.15-1.39c.23-1.57-.94-2.22-1.82-3-.32-.28-1-.11-1.52-.55-1.2-1-2.54-1.9-3.79-2.87-.22-.17-.45-.73-.39-.79.86-.78-.22-1-.36-1.47-.34-1.14-1-1.46-2.16-1.42a1.48,1.48,0,0,1-1.36-2.34c.11-.21.39-.33.51-.54a5.37,5.37,0,0,0,.34-.85,9.13,9.13,0,0,0-.9-.23,2.39,2.39,0,0,0-.75,0c-1,.16-.89-.49-.82-1.07a5.27,5.27,0,0,1,.38-1.09c.15-.42.2-.7-.39-.89a1.64,1.64,0,0,1-1-.92c-.27-.91-.87-1-1.67-1.07-1.12-.1-1.33-.41-1.37-1.55a7.83,7.83,0,0,1,0-1.75c.26-1.32-.68-2.23-1.06-3.33-.07-.21-.65-.3-1-.35-.67-.08-1.5.28-1.63-.9,0-.24-.6-.48-1-.6s-.91.11-.84-.55c0-.37.13-.94.38-1.06.8-.4,1.17-1.29,2-1.62a1,1,0,0,0,.57-1.24,1.27,1.27,0,0,0-1.14-1.06c-1.84-.36-2.2-.87-1.84-2.57.08-.37.41-.68.47-1,.31-2-.61-2.64-2.64-2a2.5,2.5,0,0,1-.67,0c0-.28,0-.57,0-.85,0-.06.13-.11.16-.18s.19-.36.13-.43c-1.43-1.85.61-2.08,1.37-2.37,1-.38.25-.48.17-.86-.33-1.75-.9-3.26-2.64-4.15-.49-.25-.78-1-1.07-1.53-.54-1-.45-1.38.43-2.05s1.1-1.74.43-1.91c-1.16-.3-.79-1.16-.63-1.5.43-.93.54-1.61-.41-2.24-.11-.07,0-.57.1-.82s.35-.52.51-.51c1.37.13.3-1.31,1-1.56-.15-.29-.23-.68-.47-.87A2.18,2.18,0,0,1,2.5,195a10.84,10.84,0,0,0,0-1.5c0-.51,0-.75.7-1,1.32-.46,1.51-1,1.29-2.35A6.24,6.24,0,0,0,4,188.34a1.58,1.58,0,0,0-1.36-.85c-1.74-.19-2.17-1.2-1.18-2.61.28-.4.73-.69.56-1.27-.06-.21-.17-.51-.32-.55s-.59.08-.62.2c-.09.41-.06.86-.66.76s-.32-.64-.39-1A1.34,1.34,0,0,1,0,182.77Zm74.5-73.61c0-.33,0-.67,0-1,0-1.25.25-1.43,1.42-.92.39.17.76.51,1,0,.11-.21-.22-.69-.43-1s-.49-.46-.69-.72a1.58,1.58,0,0,1,1-2.55c.26-.09.72-.31.7-.4-.15-.86.41-1.53.53-2.3s0-1.38-.68-1.7c-.45-.2-1-.18-.81-.89a4.05,4.05,0,0,1,.41-1.32c.38-.54,1-.93,1.37-1.45a1,1,0,0,0,0-.83,2.06,2.06,0,0,0-.69-.71,1.77,1.77,0,0,1-.54-2.2c.25-.71,1-.77,1.68-.71a2,2,0,0,0,.67-.19A5.12,5.12,0,0,0,79,89.8c-.88-.83-1.29-1.82-.49-2.85a3.54,3.54,0,0,0,1-2.86c0-.15.34-.5.56-.53.49-.08,1,0,1.49,0s1.24-1.08.89-1.48c-1-1.06-1.12-1.94,0-3,.21-.19.05-.8,0-1.22a1.86,1.86,0,0,1,.65-1.74c1-.81.93-2,.82-3.13,0-.17-.63-.45-.66-.41C82.4,73.61,81,74,80.23,75.44c-.85,1.65-1.48,3.54-3.09,4.73-.1.07-.1.29-.12.44-.17.93-.33,1.86-.51,2.79,0,.22-.15.58-.27.6-1.82.26-2.32,2.07-3.53,2.93-1.46,1-.58,3.49-2.7,3.91a.65.65,0,0,0,0,.24,2.66,2.66,0,0,1-1,2.57c-1,.7-.72,2-1.56,2.63a2.26,2.26,0,0,0-1,2.35,1,1,0,0,1-.08.7c-.61.68-1.49,1.21-1.85,2a8.59,8.59,0,0,0-.27,2.64c0,.13-.22.24-.29.38q-1.26,2.48-2.5,5a8.21,8.21,0,0,0-.53,4.13c0,.18-.31.45-.54.57s-.85.13-.86.24c-.12,1-1.19,1.69-1.09,2.82a3.14,3.14,0,0,1-.2,1.41,26.56,26.56,0,0,1-2,4.43c-1.39,2.18-1.61,4.61-1.75,7A5.41,5.41,0,0,1,52.84,134c-.41.36-.93.67-.84,1.4a3.68,3.68,0,0,1-1.09,3.05c-.28.31-.52,1.11-.35,1.28.62.63.41,1,0,1.65-.62.95-.52,1,.51,1.67,1.2.77,1.17.79.47,2.28a10.71,10.71,0,0,1-2.38,3.23c-.7.66-.31,1.61-1,2.12.83.89-.27,1.67-.17,2.54,0,.38-.32,1.11-.61,1.18-1.36.32-.89.94-.54,1.77a4.85,4.85,0,0,1,0,1.84c-1.15-.06-.82.82-.78,1.38a27.45,27.45,0,0,1-.55,6.79c-.57,3.29-.64,3.63,0,6.11a1,1,0,0,1-.31.76c-.72.69-1.87,2.41-1.59,2.82.65,1,0,2.23.62,3s.07,1.18-.18,1.66a6.89,6.89,0,0,0-1,3.85,4.75,4.75,0,0,1-.36,1.34c-.07.31-.23.76-.09.93.71.87.4,1.87.48,2.81a9.9,9.9,0,0,0,.33,3.11c.49,1.1-.22,1.83-.34,2.73-.15,1.18.32,1.68,1.31,1.14.64-.35.93-.44,1.43.09a2.84,2.84,0,0,0,1,.54c.41.16,1.15-.34,1.22.4.1,1-.81.45-1.26.6a1.91,1.91,0,0,1-.5,0c-1,0-.9.43-.42,1.07.14.19,0,.55.05.84a6.07,6.07,0,0,1-.85-.18c-1-.35-.89-.33-1,.58-.16,1.16.73,1.58,1.31,2.22.89,1,.9,1,0,1.92s-1,1-.28,2.2A5.08,5.08,0,0,1,46,210a1.3,1.3,0,0,0,.17.91,4.39,4.39,0,0,1,.84,2.92c0,.77.51,1.45.55,2.29,0,.48.87,1.35,1.27,1.3,1.21-.14,1.65.57,2.2,1.35.28.39.65.35,1-.1a19.67,19.67,0,0,1,1.45-1.86,1.8,1.8,0,0,1,1.4-.85c.87,0,1.21-.64,1.15-1.51a3.58,3.58,0,0,1,.07-1.71,6.48,6.48,0,0,1,1.37-1.44,16.52,16.52,0,0,1-1.74-.38c-.12,0-.17-.41-.2-.64a5.94,5.94,0,0,0-.43-2.08c-.59-1.23,0-2.09,1.31-2.85a3.63,3.63,0,0,0,2.12-3.58,18.19,18.19,0,0,1,0-2.25,1.66,1.66,0,0,0-.5-1.3c-1.4-1.54-1.37-1.56.13-3.11l.53-.53c.65-.64,0-.56-.34-.58s-.91.06-.79-.57c0-.18.44-.32.69-.42a1.26,1.26,0,0,1,.5,0c.88,0,1.09-.32.52-1-.33-.4-.27-.67,0-1a15.83,15.83,0,0,1,.91-1.36,3.47,3.47,0,0,0,1.37-3,10.25,10.25,0,0,0-.38-3.2c-.07-.22-.24-.59-.16-.66,1-.92-.06-2.45,1-3.36s0-2.38,1-3.37c.24-.25,0-1,.51-1.27l-1.33-.28a2.41,2.41,0,0,1-.45-.08,5.77,5.77,0,0,1,0-1.84c.11-.37.58-.9,1.15-.44.34.28.74.64,1,.17a4.69,4.69,0,0,0,.47-3.69c0-.08-.31-.16-.42-.11s-.28.27-.26.38.33.43.3.61c-.11.75-.88,1.11-1.93,1s-.54-.91-.5-1.34.46-1.08.74-1.1c.8,0,.76-.5.7-1a1.44,1.44,0,0,1,.68-1.47,10.38,10.38,0,0,1,1.51-1.16,2.44,2.44,0,0,0,1-3.47c-.92-1.09-1-2,.06-2.95.49-.45.51-1.37,0-1.45-1.43-.21-.79-1.5-.66-1.67a3,3,0,0,0,.42-2.09c0-.89.09-1.53,1.13-1.85.63-.2,1.2-.62.54-1.65s-.16-1.56,1-2.16a1.77,1.77,0,0,1,.44-.14c.59-.14.62-.74.28-.85-1.15-.39-.33-2.17-1.72-2.28a8.57,8.57,0,0,1-.08-1.94c.1-.56.59-.83,1.22-1,.36-.09,1-.49.28-1.22a1.5,1.5,0,0,1-.11-2.33,1.8,1.8,0,0,0,.44-2.2c-.4-.65-.44-1,.13-1.41s.73-1.3,1.57-.5a.5.5,0,0,0,.43-.12c.27-.87.92-1.64.28-2.7-.41-.66-.94-1.61.52-2.06.53-.16.23-1.29-.41-1.37s-1,0-.89-.79c.09-1-.37-2.11,1-2.54a11,11,0,0,1,2.32-4.79,1.92,1.92,0,0,0-.69-2.52c-.84-.65-.85-1,0-1.73.29-.26.67-.64,1-.61,1.43.14,1.23-1.3,1.89-1.88,0,0-.25-.56-.45-.62-.45-.14-1.13,0-1.38-.23s-.12-.93-.14-1.41C74.51,109.66,74.52,109.41,74.52,109.16ZM105,86.76c0-1.54,0-1.52,1.19-1.31a1.07,1.07,0,0,0,.83-.24,4.35,4.35,0,0,0,.55-1c.1-.18.21-.35.31-.53-.23,0-.58-.18-.66-.09-.81,1-1.35.25-1.7-.35a2.19,2.19,0,0,1,0-1.46c0-.18.56-.2.81-.37.9-.63,2.2-.21,3-1.32.3-.41,1.15-.51,1.12-1.29s.26-1.47-.5-2-.39-1.68-.47-2.54a1.06,1.06,0,0,1,1-1.16c.47-.09.43-.15.22-.56-.46-.92-.48-1.7.74-2.24.79-.35.78-1.19-.05-1.45-1-.32-.94-.92-.92-1.63s.43-1,1-1.15a1.23,1.23,0,0,0,.95-1.48c-.16-1-.94-.48-1.39-.47-1.2,0-2.3,0-3-1.18-.13-.21-.74-.39-.8-.32-.67.8-1.55.4-2.33.45-1.28.07-1.7.4-1.94,1.76a9.9,9.9,0,0,1-.27,1.38c-.2.64.2,1.46.26,2.21.07.93-1.35,1.21-1,2.34a1.85,1.85,0,0,1-.28,1.35,5.32,5.32,0,0,0-.69,3.22,6.8,6.8,0,0,1-.8,3.93,5.25,5.25,0,0,0-.72,3.45,5.73,5.73,0,0,1-.09,2.2c-.64,2.58-.58,3.41.6,5.92a1.15,1.15,0,0,1,0,.74,1,1,0,0,1-.39.49c-.09.06-.3,0-.44-.09a.32.32,0,0,1-.15-.18c-.08-.22-.14-.44-.21-.66a5.46,5.46,0,0,0-.7.63A34.66,34.66,0,0,0,98,95.25a1.9,1.9,0,0,1-.29.85,9.38,9.38,0,0,1-1.06,1.55c-.54.59-.95,1.08-.35,1.91a1.49,1.49,0,0,1-.06,2c-1.11,1-.78,2.24-.48,3.4a4.84,4.84,0,0,1-.14,3.77,1,1,0,0,0-.05.48,4.32,4.32,0,0,1-1.7,3.8c-.18.17-.31.73-.21.81.8.68.23,1.07-.2,1.6a7.68,7.68,0,0,0-.87,1.63c0,.06.22.24.34.36.4-.49.69-.42.61.21s-.5,1.06-.44,1.54c.14,1-.41,1.86-.56,2.79-.07.45-.43.86-.46,1.3-.06.9.12,1.85-.89,2.39.12.91.3,1.82.34,2.74,0,.34-.3.7-.47,1a6,6,0,0,0-1,3.83,4.5,4.5,0,0,1-.16,1.18,12.29,12.29,0,0,0-.84,4.65,3.54,3.54,0,0,1-.07,1.71c-.62,1.26-1.48,2.39-1,4,.08.27-.76.8-.08,1.39a.85.85,0,0,1-.08.81,2.42,2.42,0,0,0-.48,3.08,2.11,2.11,0,0,1-.07,2,10.72,10.72,0,0,0-.23,3.49,1.4,1.4,0,0,1-.84,1.67c-1.55.82-1.83,2.65-2.14,4.29-.18.93.37,2-.49,2.81-.07.07.11.6.21.61,1.2.13.83.6.36,1.25-.3.42-.3,1.07-.62,1.48s-.5.72,0,1.1.66.81.11,1.4a2.43,2.43,0,0,0-.59,1.48,12.1,12.1,0,0,1-1.2,3.76c-.13.36-.44.9-.3,1.08.6.82.33,1.31-.24,2-.38.49-.55,1.71-.23,2a1.42,1.42,0,0,1-.28,2.25c-1.46,1-.15,2.78-1.28,3.77,1,.86.26,1.75,0,2.58A25,25,0,0,0,79,192c-.26,1.18-.11,2.56-1.16,3.52a.89.89,0,0,0-.17.82c.21.42.76.73.84,1.14s-.47.88-.42,1.28a6.69,6.69,0,0,1-1,3.84c-.25.53-.71.87-.14,1.67a2.67,2.67,0,0,1-.25,2.51,10.21,10.21,0,0,0-1.16,3.53,12.55,12.55,0,0,1-1.06,3.54A16.36,16.36,0,0,0,73,219c0,.77.32,1.65-.46,2.28,1.07.8-.1,1.61,0,2.34.18,1.05-1.09.69-1,1.3.11,1.27-.44,2.6.41,3.83.18.26-.07.92-.28,1.32-.32.62-.78,1.18-1.14,1.78-.06.11,0,.31,0,.47l.53-.15a1.66,1.66,0,0,1,.68-.14,2.86,2.86,0,0,1,.73.4c-.19.19-.35.46-.58.56s-1-.18-.9.48a2.22,2.22,0,0,1-.86,2.16s.16.33.23.51a1.43,1.43,0,0,1-.28,1.55c-.82,1-.69,1.34.55,1.7.83.24,1.62.41,2.08-.8.3-.8.71-.73,1.51-.09.36.29.59.9.83-.16.12-.53,1.22-.83,1.36-1.37a3.92,3.92,0,0,1,.77-1.45c.4-.55-.36-1-.22-1.67.21-1,.73-1.79,1.65-1.79s1-.78,1.19-1.2A2.33,2.33,0,0,0,80,229c-.85-1.5-.27-3.06-.45-4.57-.06-.53.12-.69.71-1,2.29-1.06,2.25-1.15.56-2.91l-.53-.53c-.53-.51-.21-.92.22-1.19a4,4,0,0,1,1.12-.31,4.63,4.63,0,0,0,.86-.23c-.08-.94,1.33-1.41.63-2.67a2.09,2.09,0,0,1,.68-2.66,3.72,3.72,0,0,0,.89-1.36c.17-.34.45-.88.31-1.08-.81-1.22-.38-2.54-.45-3.82a3.23,3.23,0,0,0-.73-2.22,1.51,1.51,0,0,1,.8-2.46c1.34-.5,1.76-1.1,1.37-2.26a17.65,17.65,0,0,0-1-2.07,3.69,3.69,0,0,1-.41-1.07c-.13-1,.06-1.2,1-1.08.45.06.85.36,1.3.46a.7.7,0,0,0,.62-.24.68.68,0,0,0-.15-.64c-.22-.19-.6-.2-.82-.39s-1.09-.12-1-1c0-.76.22-1.44.83-1.62s1.13-.45,1.18-1a3.89,3.89,0,0,0-.46-1.54c-.14-.36-.35-.69-.49-1s-.19-.63-.28-.94a4.76,4.76,0,0,0,.86.3.82.82,0,0,0,.52-.19c.7-.51.32-.88-.09-1.39-.93-1.17-.75-2.07.46-2.73.47-.26,1-.46,1.46-.69-.31-.44-.61-.89-.95-1.3-.17-.21-.44-.32-.63-.51a1.75,1.75,0,0,1-.34-.51c.83-.72-.16-1.39,0-2.11.17-1.08.52-1.36,1.68-1,.42.14.82.24.85-.4a6.64,6.64,0,0,1,0-1.25c.55-2.19.54-2.18.13-3.89a1.24,1.24,0,0,1,.29-1c.55-.54.65-.86.16-1.63a1.3,1.3,0,0,1,.9-2c.23-.06.32-.65.47-1-1.45-.3-.89-1.44-1-2.31s.38-1.3,1.26-1.44a1.79,1.79,0,0,0,1.17-.71c.9-1.66.91-3.6,1.54-5.35,0-.09-.16-.38-.22-.38-.74.09-.79-.35-.77-.91,0-.75-.29-1.71.07-2.21.88-1.24.27-1.9-.55-2.68-.25-.24-.54-.84-.43-1a2.29,2.29,0,0,1,1.17-.72,1.4,1.4,0,0,1,1.14.17c.56.56.72-.05.88-.27a.94.94,0,0,0,0-.82c-.13-.28-.49-.45-.67-.73s-.29-.74.3-.89a1.09,1.09,0,0,0,.54-.34,21.66,21.66,0,0,0,1-4.57,1.68,1.68,0,0,0-.56-.57c-.86-.64-1.37-1.47-.85-2.22a3,3,0,0,0,.4-2.09,1.16,1.16,0,0,1,.9-1.38c.44-.16.91-.59.38-1.36s-.54-1.79.72-2.18c.23-1.06,1.49-1.73,1-3.09a1.54,1.54,0,0,1,1-2c.34-.15.51-.75.71-1.17.05-.11,0-.44-.1-.44-.33,0-.67,0-1,0-.48-.06-1.41-1.44-1.14-1.74a5.38,5.38,0,0,1,1.48-1.23c1.16-.59,1.29-.82,1-2.26,0-.22.18-.53.35-.75s.58-.35.59-.53a18.58,18.58,0,0,0-.06-4.48c-.19-.85-.45-1.4.32-2a.85.85,0,0,0,.14-.82c-1.21-1.68.52-2.75.82-4.11,1.12,0,.79-.78.8-1.37,0-1.76-.19-3.51,1-5.12a7.3,7.3,0,0,0,.55-2.51,8.3,8.3,0,0,0,.46-1.79,13.06,13.06,0,0,0-.45-2,1,1,0,0,1,.19-.66c.74-1,.15-1.06-.66-1.08a.65.65,0,0,1-.51-.35c0-.19.14-.61.22-.61.5,0,.79-.1.75-.68a3.74,3.74,0,0,0-.48-2.31A3.85,3.85,0,0,1,105,86.76ZM128.88,81c.1-.08.57-.25.6-.5A22,22,0,0,0,130,76c-.07-1.23.57-2.25,1.32-2.36,1-.16.51-1.19,1.18-1.32-.09-.27-.24-.77-.26-.77-.92.23-1.29-.55-1.89-.92-.29-.18-.86.1-1.3.17.36,1.46-1.37,2.87-.12,4.37.11.14.12.59,0,.64-1.54.93-.69,2.68-1.34,4C127.08,80.77,127.48,81.05,128.88,81ZM53.52,221.74a5.43,5.43,0,0,1,0-.75c.1-.74-.16-1.07-.94-1-.41.05-.83,0-1.25,0a1.55,1.55,0,0,0-1.21,2.32.69.69,0,0,0,.64.14c1-1,1.33-.24,1.77.52.12.22.42.34.63.51a3.75,3.75,0,0,0,.34-.79A5.57,5.57,0,0,0,53.52,221.74Z"/></svg>